<svg id="Updated_logo" data-name="Updated logo" xmlns="http://www.w3.org/2000/svg" xmlns:xlink="http://www.w3.org/1999/xlink" width="208.931" height="48.387" viewBox="0 0 208.931 48.387">
  <defs>
    <linearGradient id="linear-gradient" x1="0.5" x2="0.5" y2="1" gradientUnits="objectBoundingBox">
      <stop offset="0" stop-color="#01a1e8"/>
      <stop offset="1" stop-color="#1e6fb9"/>
    </linearGradient>
    <linearGradient id="linear-gradient-4" x1="0.5" x2="0.5" y2="1" gradientUnits="objectBoundingBox">
      <stop offset="0" stop-color="#fd9616"/>
      <stop offset="1" stop-color="#f35526"/>
    </linearGradient>
  </defs>
  <path id="Path_10157" data-name="Path 10157" d="M3007.7,6670.316h-9.517v-39.568h9.369c.09,1.127.176,2.2.29,3.646.981-.65,1.745-1.141,2.491-1.655,6.741-4.656,14.482-4.183,19.493,1.147,2.479,2.639,3.241,5.939,3.3,9.325.143,8.762.046,17.524.037,26.288,0,.221-.011.36-.034.786l-9.78-.016c0-1.018.006-1.959,0-2.9-.054-6.752-.1-13.5-.179-20.254a18.145,18.145,0,0,0-.285-2.624c-.473-2.954-1.938-5.116-5.011-5.757-3.054-.638-5.482.549-7.447,2.871-2.469,2.919-2.619,6.488-2.692,10.015-.109,5.3-.029,10.611-.029,15.917Z" transform="translate(-2905.905 -6622.214)" fill="url(#linear-gradient)"/>
  <path id="Path_10155" data-name="Path 10155" d="M3158.983,6653.208h-31.361c-.544,3.344,2.333,7.3,6.246,8.656a13.8,13.8,0,0,0,13.215-2.036,3.3,3.3,0,0,1,2.671-.3c2.22.854,4.328,2,6.478,3.034-3.8,7.666-16.456,11.083-26.175,7.232-10.109-4.008-14.884-15.109-11.379-26.451,3.125-10.11,13.819-15.816,24.88-13.275C3153.812,6632.427,3160.467,6642.252,3158.983,6653.208ZM3149,6645.46c-.676-4.2-4.8-7.277-9.926-7.537-5.448-.279-9.973,2.734-11.18,7.537Z" transform="translate(-2950.259 -6623.289)" fill="url(#linear-gradient)"/>
  <path id="Path_10156" data-name="Path 10156" d="M2938.917,6653.369H2907.5c-.3,3.841,3.084,7.91,7.342,8.977a13.38,13.38,0,0,0,12.052-2.378,2.412,2.412,0,0,1,2.991-.342c2.057,1.069,4.177,2.013,6.269,3.008-3.453,7.409-14.794,10.7-24.586,7.842-10.552-3.082-16.17-14.089-13.289-25.9,2.561-10.5,12.869-16.513,24.816-14.469C2933.328,6631.858,2940.341,6642.02,2938.917,6653.369Zm-9.724-7.754a10.731,10.731,0,0,0-10.954-7.632c-5.268.189-9.324,3.148-10.331,7.632Z" transform="translate(-2853.834 -6623.415)" fill="url(#linear-gradient)"/>
  <g id="Group_15824" data-name="Group 15824" transform="translate(134.354 7.294)">
    <path id="Path_10135" data-name="Path 10135" d="M2186.963,8682.467v30.15h-7.674v-23.994h-5.149l5.149-6.149.007-.007Z" transform="translate(-2161.144 -8671.81)" fill="url(#linear-gradient-4)"/>
    <path id="Path_10136" data-name="Path 10136" d="M2086.25,8682.467l-5.293,6.32h-.625v23.83h-7.674v-30.15Z" transform="translate(-2072.657 -8671.81)" fill="url(#linear-gradient-4)"/>
    <circle id="Ellipse_359" data-name="Ellipse 359" cx="3.688" cy="3.688" r="3.688" transform="translate(18.215)" fill="url(#linear-gradient-4)"/>
    <circle id="Ellipse_361" data-name="Ellipse 361" cx="3.688" cy="3.688" r="3.688" transform="translate(0.428)" fill="url(#linear-gradient-4)"/>
  </g>
  <g id="Group_15955" data-name="Group 15955">
    <path id="Path_10154" data-name="Path 10154" d="M32.049-82.347v3.23a12.255,12.255,0,0,0-9.34-4.143,15.78,15.78,0,0,0-11.377,4.775A18.094,18.094,0,0,0,6.7-66.195a16.58,16.58,0,0,0,4.354,11.447c2.107,2.177,5.829,4.424,11.588,4.424a11.947,11.947,0,0,0,9.41-4.143v3.16A7.55,7.55,0,0,1,29.8-45.478a6.829,6.829,0,0,1-4.986,1.756c-3.722,0-4.846-1.966-5.267-3.23H7.048a11.413,11.413,0,0,0,3.441,6.531c4,4.073,8.849,5.548,14.678,5.548,4.565,0,9.832-.983,13.835-5.056,3.863-4,4.284-8.287,4.284-12.992V-82.347Z" transform="translate(-6.697 83.26)" fill="url(#linear-gradient)"/>
    <path id="Path_10169" data-name="Path 10169" d="M2357.807,7479.521c-.361-2.524-1.673-3.757-4.377-3.973-1.647-.134-3.3-.175-4.948-.325a6.648,6.648,0,0,1-6.345-5.12c-.338-1.206-.448-2.476-.668-3.716-.052-.292.092-.394.344-.49.387-.148.753-.354,1.128-.535l-.06-.125c-.106.04-.213.08-.318.125a2.852,2.852,0,0,1-3.632-1.111,1.9,1.9,0,0,1-.309-1.146,3.885,3.885,0,0,1,1.757-2.673,8.569,8.569,0,0,1,2.194-.763,1.116,1.116,0,0,0,.829-1.806,3.987,3.987,0,0,1-.448-.778c-.052-.179.082-.419.142-.626a1.78,1.78,0,0,0,.149-.469,1.9,1.9,0,0,1,1.145-1.932c.213-.1.348-.452.433-.715.1-.314.06-.679.168-.987a1.1,1.1,0,0,1,.96-.746.941.941,0,0,1,.932.584c.392.65.637,1.412,1.482,1.777a1.24,1.24,0,0,1-1.311.02c-.305-.132-.559-.4-.87-.5-.177-.061-.422.073-.636.117.09.165.139.415.278.482a1.881,1.881,0,0,1,1.108,1.852c0,.153-.008.39.082.451.522.357.2.7.019,1.051a5.6,5.6,0,0,0-.416.8,1.017,1.017,0,0,0,.853,1.4,9.807,9.807,0,0,1,2.3.791,3.8,3.8,0,0,1,1.792,2.708,1.858,1.858,0,0,1-1.02,1.958,2.184,2.184,0,0,1-2.5.2,13.024,13.024,0,0,1-1.3-1.093,17.938,17.938,0,0,0-1.971-1.609,2.687,2.687,0,0,0-2.736.017c.128-.014.256-.025.384-.041a3.407,3.407,0,0,1,3.051,1.062c.422.456.783.975,1.229,1.4a12.6,12.6,0,0,0,1.592,1.308.434.434,0,0,1,.223.545,16.017,16.017,0,0,0-.35,2.416,3.422,3.422,0,0,0,2.311,3.492c1.087.429,2.232.713,3.344,1.077a20.23,20.23,0,0,1,1.951.707,3.452,3.452,0,0,1,2.159,3.276A15.879,15.879,0,0,1,2357.807,7479.521Z" transform="translate(-2332.426 -7449.774)" fill="#fff"/>
  </g>
</svg>
